<?xml version="1.0" encoding="UTF-8" standalone="no"?>
<!-- Created with Inkscape (http://www.inkscape.org/) -->

<svg
   xmlns:dc="http://purl.org/dc/elements/1.1/"
   xmlns:cc="http://creativecommons.org/ns#"
   xmlns:rdf="http://www.w3.org/1999/02/22-rdf-syntax-ns#"
   xmlns:svg="http://www.w3.org/2000/svg"
   xmlns="http://www.w3.org/2000/svg"
   xmlns:sodipodi="http://sodipodi.sourceforge.net/DTD/sodipodi-0.dtd"
   xmlns:inkscape="http://www.inkscape.org/namespaces/inkscape"
   version="1.1"
   id="svg876"
   width="798"
   height="757.33356"
   viewBox="0 0 798 757.33356"
   sodipodi:docname="water_pipe.svg"
   inkscape:version="0.92.3 (2405546, 2018-03-11)">
  <metadata
     id="metadata882">
    <rdf:RDF>
      <cc:Work
         rdf:about="">
        <dc:format>image/svg+xml</dc:format>
        <dc:type
           rdf:resource="http://purl.org/dc/dcmitype/StillImage" />
        <dc:title></dc:title>
      </cc:Work>
    </rdf:RDF>
  </metadata>
  <defs
     id="defs880" />
  <sodipodi:namedview
     pagecolor="#ffffff"
     bordercolor="#666666"
     borderopacity="1"
     objecttolerance="10"
     gridtolerance="10"
     guidetolerance="10"
     inkscape:pageopacity="0"
     inkscape:pageshadow="2"
     inkscape:window-width="1920"
     inkscape:window-height="1024"
     id="namedview878"
     showgrid="false"
     inkscape:zoom="0.69471589"
     inkscape:cx="398.46483"
     inkscape:cy="543.60902"
     inkscape:window-x="0"
     inkscape:window-y="0"
     inkscape:window-maximized="1"
     inkscape:current-layer="svg876" />
  <path
     style="fill:#005dd7;fill-opacity:1"
     d="m 680,756.78837 c -24.31374,-3.25078 -44.88612,-21.38108 -51.02038,-44.96392 -2.65704,-10.21483 -1.64372,-24.97126 2.50548,-36.486 4.29614,-11.92252 14.28438,-31.69827 30.80179,-60.98452 7.45393,-13.21621 16.17898,-29.54198 19.38901,-36.27948 3.21002,-6.7375 6.20165,-12.25 6.64806,-12.25 0.4464,0 2.2782,3.5521 4.07066,7.89356 1.79246,4.34145 8.23219,16.82895 14.3105,27.75 30.21297,54.28433 33.9125,61.66219 39.29077,78.35644 13.2366,41.08664 -22.51307,82.77764 -65.99589,76.96392 z M 576.10866,521.24702 c -0.89855,-2.34158 -0.71074,-61.71369 0.19975,-63.14681 0.54968,-0.86521 5.60403,-1.30511 17.23468,-1.5 L 610,456.32445 l 0.25807,-58.936 c 0.20356,-46.4865 -0.008,-59.1047 -1,-59.73468 -0.69194,-0.43928 -27.64047,-0.80559 -59.88563,-0.81401 -47.3107,-0.0124 -58.8387,0.23911 -59.72143,1.30273 -0.64872,0.78166 -1.20724,7.19119 -1.37244,15.75 L 488,368.32445 l -32,0.26541 c -29.19627,0.24216 -32.10952,0.11589 -33.25,-1.44113 -0.98125,-1.33963 -1.25,-24.30691 -1.25,-106.82428 0,-82.51737 0.26875,-105.48465 1.25,-106.82428 1.14048,-1.55702 4.05373,-1.68329 33.25,-1.44113 l 32,0.26541 0.5,15.5 0.5,15.5 132.5,0.5 c 97.77764,0.36897 133.02411,0.80351 134.5,1.65818 2.51543,1.45666 5.8366,5.09003 7.62504,8.34182 1.13933,2.07156 1.46065,24.77875 1.87496,132.5 l 0.5,130 16,0.5 16,0.5 v 32.5 32.5 l -110.64134,0.25435 c -100.24453,0.23045 -110.69854,0.10531 -111.25,-1.33178 z M 309.98428,369.58834 c -0.25498,-0.69514 -0.58076,-7.78889 -0.72394,-15.76389 l -0.26034,-14.5 -132,-0.5 C 46.096437,338.3286 44.970956,338.30739 41.503398,336.27038 c -1.923131,-1.12973 -4.510631,-3.55878 -5.75,-5.39788 L 33.5,327.52868 V 197.79901 C 33.5,91.570545 33.260891,67.870895 32.18009,66.973905 c -0.795574,-0.66027 -7.449543,-1.20547 -16.75,-1.37244 L 0,65.324445 v -32.5 -32.49999988 l 110.43826,-0.25441 c 87.68994,-0.202 110.60231,0.004 111.23469,0.99999998 1.02829,1.61961 1.04599,61.8615899 0.0186,63.4786499 -0.54968,0.86521 -5.60403,1.30511 -17.23468,1.5 L 188,66.324445 187.74207,125.5822 187.48413,184.83995 248.24207,184.5822 309,184.32445 l 0.5,-15 0.5,-15 32.75446,-0.26367 32.75447,-0.26367 -0.25447,108.26367 L 375,370.32445 l -32.27606,0.26389 c -25.29118,0.20678 -32.37638,-0.01 -32.73966,-1 z"
     id="path888"
     inkscape:connector-curvature="0" />
  <path
     style="fill:#000000"
     d=""
     id="path886"
     inkscape:connector-curvature="0" />
</svg>
